<svg width="47" height="32" viewBox="0 0 47 32" fill="none" xmlns="http://www.w3.org/2000/svg">
<rect width="47" height="32" rx="6" fill="#949494" fill-opacity="0.6"/>
<path d="M9.722 18.83C10.618 18.0553 11.3227 17.4207 11.836 16.926C12.3587 16.422 12.7927 15.8993 13.138 15.358C13.4833 14.8167 13.656 14.2753 13.656 13.734C13.656 13.174 13.5207 12.7353 13.25 12.418C12.9887 12.1007 12.5733 11.942 12.004 11.942C11.4533 11.942 11.024 12.1193 10.716 12.474C10.4173 12.8193 10.2587 13.286 10.24 13.874H8.7C8.728 12.81 9.04533 11.998 9.652 11.438C10.268 10.8687 11.0473 10.584 11.99 10.584C13.0073 10.584 13.8007 10.864 14.37 11.424C14.9487 11.984 15.238 12.7307 15.238 13.664C15.238 14.336 15.0653 14.9847 14.72 15.61C14.384 16.226 13.978 16.7813 13.502 17.276C13.0353 17.7613 12.438 18.326 11.71 18.97L11.08 19.53H15.518V20.86H8.714V19.698L9.722 18.83ZM16.9201 15.764C16.9201 14.1493 17.1907 12.8893 17.7321 11.984C18.2827 11.0693 19.2254 10.612 20.5601 10.612C21.8947 10.612 22.8327 11.0693 23.3741 11.984C23.9247 12.8893 24.2001 14.1493 24.2001 15.764C24.2001 17.3973 23.9247 18.676 23.3741 19.6C22.8327 20.5147 21.8947 20.972 20.5601 20.972C19.2254 20.972 18.2827 20.5147 17.7321 19.6C17.1907 18.676 16.9201 17.3973 16.9201 15.764ZM22.6321 15.764C22.6321 15.008 22.5807 14.3687 22.4781 13.846C22.3847 13.3233 22.1887 12.8987 21.8901 12.572C21.5914 12.236 21.1481 12.068 20.5601 12.068C19.9721 12.068 19.5287 12.236 19.2301 12.572C18.9314 12.8987 18.7307 13.3233 18.6281 13.846C18.5347 14.3687 18.4881 15.008 18.4881 15.764C18.4881 16.548 18.5347 17.206 18.6281 17.738C18.7214 18.27 18.9174 18.6993 19.2161 19.026C19.5241 19.3527 19.9721 19.516 20.5601 19.516C21.1481 19.516 21.5914 19.3527 21.8901 19.026C22.1981 18.6993 22.3987 18.27 22.4921 17.738C22.5854 17.206 22.6321 16.548 22.6321 15.764ZM26.7708 18.83C27.6668 18.0553 28.3715 17.4207 28.8848 16.926C29.4075 16.422 29.8415 15.8993 30.1868 15.358C30.5322 14.8167 30.7048 14.2753 30.7048 13.734C30.7048 13.174 30.5695 12.7353 30.2988 12.418C30.0375 12.1007 29.6222 11.942 29.0528 11.942C28.5022 11.942 28.0728 12.1193 27.7648 12.474C27.4662 12.8193 27.3075 13.286 27.2888 13.874H25.7488C25.7768 12.81 26.0942 11.998 26.7008 11.438C27.3168 10.8687 28.0962 10.584 29.0388 10.584C30.0562 10.584 30.8495 10.864 31.4188 11.424C31.9975 11.984 32.2868 12.7307 32.2868 13.664C32.2868 14.336 32.1142 14.9847 31.7688 15.61C31.4328 16.226 31.0268 16.7813 30.5508 17.276C30.0842 17.7613 29.4868 18.326 28.7588 18.97L28.1288 19.53H32.5668V20.86H25.7628V19.698L26.7708 18.83ZM33.7589 12.25V10.794H36.6709V21H35.0609V12.25H33.7589Z" fill="#FFDD67"/>
</svg>
