<svg width="32" height="32" viewBox="0 0 32 32" fill="none" xmlns="http://www.w3.org/2000/svg">
<g clip-path="url(#clip0_2_229)">
<path d="M31.3335 8.67606C31.1524 8.0297 30.7994 7.44452 30.3122 6.98273C29.8113 6.50673 29.1973 6.16624 28.5282 5.99339C26.0242 5.33339 15.9922 5.33339 15.9922 5.33339C11.81 5.28581 7.62878 5.49509 3.47221 5.96006C2.80313 6.14568 2.1903 6.49378 1.68821 6.97339C1.19488 7.44806 0.837546 8.03339 0.650879 8.67473C0.20247 11.0904 -0.0153981 13.5432 0.000212559 16.0001C-0.0157874 18.4547 0.201546 20.9067 0.650879 23.3254C0.833546 23.9641 1.18955 24.5467 1.68421 25.0174C2.17888 25.4881 2.79488 25.8281 3.47221 26.0081C6.00955 26.6667 15.9922 26.6667 15.9922 26.6667C20.1798 26.7144 24.3663 26.5051 28.5282 26.0401C29.1973 25.8672 29.8113 25.5267 30.3122 25.0507C30.7992 24.589 31.1518 24.0038 31.3322 23.3574C31.7923 20.9427 32.0161 18.4888 32.0002 16.0307C32.0348 13.5622 31.8114 11.0968 31.3335 8.67473V8.67606ZM12.8029 20.5654V11.4361L21.1495 16.0014L12.8029 20.5654Z" fill="#212121"/>
</g>
<defs>
<clipPath id="clip0_2_229">
<rect width="32" height="32" fill="white"/>
</clipPath>
</defs>
</svg>
