<svg width="24" height="25" viewBox="0 0 24 25" fill="none" xmlns="http://www.w3.org/2000/svg">
<path d="M12 1.52148C6.20156 1.52148 1.5 6.22305 1.5 12.0215C1.5 17.8199 6.20156 22.5215 12 22.5215C17.7984 22.5215 22.5 17.8199 22.5 12.0215C22.5 6.22305 17.7984 1.52148 12 1.52148ZM12 20.7402C7.18594 20.7402 3.28125 16.8355 3.28125 12.0215C3.28125 7.20742 7.18594 3.30273 12 3.30273C16.8141 3.30273 20.7188 7.20742 20.7188 12.0215C20.7188 16.8355 16.8141 20.7402 12 20.7402ZM12.1312 8.25508C13.3734 8.25508 14.2172 9.04727 14.3109 10.2098C14.318 10.3082 14.4 10.3832 14.4984 10.3832H15.8273C15.8883 10.3832 15.9375 10.334 15.9375 10.273C15.9375 8.24102 14.3344 6.81836 12.1242 6.81836C9.54844 6.81836 8.0625 8.55742 8.0625 11.4309V12.6566C8.0625 15.509 9.54844 17.2246 12.1242 17.2246C14.3273 17.2246 15.9375 15.8465 15.9375 13.9105C15.9375 13.8496 15.8883 13.8004 15.8273 13.8004H14.4961C14.3977 13.8004 14.318 13.8754 14.3086 13.9715C14.2102 15.052 13.3687 15.7949 12.1289 15.7949C10.5984 15.7949 9.73594 14.6723 9.73594 12.6637V11.4309C9.73828 9.3918 10.6031 8.25508 12.1312 8.25508Z" fill="#F8F8F8"/>
</svg>
