<svg width="52" height="32" viewBox="0 0 52 32" fill="none" xmlns="http://www.w3.org/2000/svg">
<rect width="52" height="32" rx="6" fill="#949494" fill-opacity="0.6"/>
<path d="M14.104 21L11.864 17.108H10.646V21H9.05V11.27H12.41C13.1567 11.27 13.7867 11.4007 14.3 11.662C14.8227 11.9233 15.21 12.2733 15.462 12.712C15.7233 13.1507 15.854 13.6407 15.854 14.182C15.854 14.8167 15.6673 15.3953 15.294 15.918C14.93 16.4313 14.3653 16.7813 13.6 16.968L16.008 21H14.104ZM10.646 15.834H12.41C13.0073 15.834 13.4553 15.6847 13.754 15.386C14.062 15.0873 14.216 14.686 14.216 14.182C14.216 13.678 14.0667 13.286 13.768 13.006C13.4693 12.7167 13.0167 12.572 12.41 12.572H10.646V15.834ZM24.8817 13.286V21H23.2857V20.09C23.0337 20.4073 22.7024 20.6593 22.2917 20.846C21.8904 21.0233 21.461 21.112 21.0037 21.112C20.397 21.112 19.851 20.986 19.3657 20.734C18.8897 20.482 18.5117 20.1087 18.2317 19.614C17.961 19.1193 17.8257 18.522 17.8257 17.822V13.286H19.4077V17.584C19.4077 18.2747 19.5804 18.8067 19.9257 19.18C20.271 19.544 20.7424 19.726 21.3397 19.726C21.937 19.726 22.4084 19.544 22.7537 19.18C23.1084 18.8067 23.2857 18.2747 23.2857 17.584V13.286H24.8817ZM28.8495 14.588V18.858C28.8495 19.1473 28.9148 19.3573 29.0455 19.488C29.1855 19.6093 29.4188 19.67 29.7455 19.67H30.7255V21H29.4655C28.7468 21 28.1962 20.832 27.8135 20.496C27.4308 20.16 27.2395 19.614 27.2395 18.858V14.588H26.3295V13.286H27.2395V11.368H28.8495V13.286H30.7255V14.588H28.8495ZM33.0085 12.264C32.7192 12.264 32.4765 12.166 32.2805 11.97C32.0845 11.774 31.9865 11.5313 31.9865 11.242C31.9865 10.9527 32.0845 10.71 32.2805 10.514C32.4765 10.318 32.7192 10.22 33.0085 10.22C33.2885 10.22 33.5265 10.318 33.7225 10.514C33.9185 10.71 34.0165 10.9527 34.0165 11.242C34.0165 11.5313 33.9185 11.774 33.7225 11.97C33.5265 12.166 33.2885 12.264 33.0085 12.264ZM33.7925 13.286V21H32.1965V13.286H33.7925ZM39.7799 13.16C40.3866 13.16 40.9279 13.286 41.4039 13.538C41.8892 13.79 42.2672 14.1633 42.5379 14.658C42.8086 15.1527 42.9439 15.75 42.9439 16.45V21H41.3619V16.688C41.3619 15.9973 41.1892 15.47 40.8439 15.106C40.4986 14.7327 40.0272 14.546 39.4299 14.546C38.8326 14.546 38.3566 14.7327 38.0019 15.106C37.6566 15.47 37.4839 15.9973 37.4839 16.688V21H35.8879V13.286H37.4839V14.168C37.7452 13.8507 38.0766 13.6033 38.4779 13.426C38.8886 13.2487 39.3226 13.16 39.7799 13.16Z" fill="#FFDD67"/>
</svg>
